HIERARCHY
ROOT base
{
	OFFSET 0.0 0.0 0.0
	CHANNELS 6 Xposition Yposition Zposition Zrotation Yrotation Xrotation
	JOINT root
	{
		OFFSET 0 0 0
		CHANNELS 6 Xposition Yposition Zposition Zrotation Yrotation Xrotation
		JOINT chest
		{
			OFFSET 0 4.72302 0
			CHANNELS 3 Zrotation Yrotation Xrotation
			JOINT neck
			{
				OFFSET 0 4.47788 0
				CHANNELS 3 Zrotation Yrotation Xrotation
				End Site
				{
					OFFSET 0.0 0.0 0.0
				}
			}
			JOINT right_shoulder
			{
				OFFSET -0.481 4.87 3.6622
				CHANNELS 3 Zrotation Yrotation Xrotation
				JOINT right_elbow
				{
					OFFSET 0 -5.49576 0
					CHANNELS 3 Zrotation Yrotation Xrotation
					JOINT right_wrist
					{
						OFFSET 0 -5.17894 0
						CHANNELS 3 Zrotation Yrotation Xrotation
						End Site
						{
							OFFSET 0.0 0.0 0.0
						}
					}
				}
			}
			JOINT left_shoulder
			{
				OFFSET -0.481 4.87 -3.6622
				CHANNELS 3 Zrotation Yrotation Xrotation
				JOINT left_elbow
				{
					OFFSET 0 -5.49576 0
					CHANNELS 3 Zrotation Yrotation Xrotation
					JOINT left_wrist
					{
						OFFSET 0 -5.17894 0
						CHANNELS 3 Zrotation Yrotation Xrotation
						End Site
						{
							OFFSET 0.0 0.0 0.0
						}
					}
				}
			}
		}
		JOINT right_hip
		{
			OFFSET 0 0 1.69774
			CHANNELS 3 Zrotation Yrotation Xrotation
			JOINT right_knee
			{
				OFFSET 0 -8.43092 0
				CHANNELS 3 Zrotation Yrotation Xrotation
				JOINT right_ankle
				{
					OFFSET 0 -8.1974 0
					CHANNELS 3 Zrotation Yrotation Xrotation
					End Site
					{
						OFFSET 0.0 0.0 0.0
					}
				}
			}
		}
		JOINT left_hip
		{
			OFFSET 0 0 -1.69774
			CHANNELS 3 Zrotation Yrotation Xrotation
			JOINT left_knee
			{
				OFFSET 0 -8.43092 0
				CHANNELS 3 Zrotation Yrotation Xrotation
				JOINT left_ankle
				{
					OFFSET 0 -8.1974 0
					CHANNELS 3 Zrotation Yrotation Xrotation
					End Site
					{
						OFFSET 0.0 0.0 0.0
					}
				}
			}
		}
	}
	JOINT red_arrow
	{
		OFFSET 0 0 0
		CHANNELS 3 Zrotation Yrotation Xrotation
		End Site
		{
			OFFSET 0.0 0.0 0.0
		}
	}
	JOINT blue_arrow
	{
		OFFSET 0 0 0
		CHANNELS 3 Zrotation Yrotation Xrotation
		End Site
		{
			OFFSET 0.0 0.0 0.0
		}
	}
}
MOTION
Frames: 15
Frame Time: 0.0333333333333333
0 18.08466 0 0 0 0 0 0 0 0 -90 0 0 0 0 0 0 0 0 0 -90 0 0 0 0 0 0 0 0 90 0 0 0 0 0 0 0 0 0 0 0 0 0 0 0 0 0 0 0 0 0 0 0 0 0 0 0 0 0 0
1.89635971784592 0 -0.0627181135118008 0 -5.02211895856505 0 0 15.7935134768486 0 -22.7069031783096 1.78906200832323E-15 -8.78686656209487 -6.14836232696873 2.89696272543035 8.16302307308232 0.725885929074526 -2.80352180353105 0.177042271839795 -2.65104355773011 17.9990582574177 -29.8589578442474 80.9149083422557 0 0 0 0 0 -14.589780133778 -19.328422738365 34.8955657516591 71.521342346548 0 0 0 0 0 50.4035227033636 -1.18726876787112 9.37404859904265 -50.3537699010727 0 0 22.9986451484958 1.23232251915723 -0.760136780038518 25.6562880157385 5.08379637161528 13.3689521620073 -91.3688612066079 0 0 -0.488508473509734 4.58942012954264 -17.8715445723278 0 0 0 0 0 0
3.84376705288887 0 -0.257937271893024 0 -5.02235384539413 0 0 15.8388084173203 0 -23.1857560674632 -0.00410239986658875 -7.2695165246702 -6.64555475660957 4.69857966924985 5.1326952202702 0.458626908544281 -3.76697823835667 0.402707713360772 13.1661530893648 25.4305856779502 -30.2002159388268 85.0361147138472 0 0 0 0 0 -25.0765453227259 -17.4794943203557 35.9499495724568 64.537835920236 0 0 0 0 0 43.3614639055511 1.66581838014225 8.01265602702243 -49.6871810041199 0 0 30.0341275309025 0.76906528733044 -0.287627537752464 43.3413844827315 0.617669471327813 14.2928564342111 -96.0334705983764 0 0 6.15218140545457 6.50260598815129 -19.0737010439979 0 0 0 0 0 0
5.93435247540474 0 -0.617227130383253 0 -4.92981459594157 0 0 16.0742090702057 0 -23.9761816514495 1.60661782498195 -4.72053647136204 -6.62476433780144 5.44678082824682 1.4032552445494 0.0494584283459066 -3.20437760842606 0.739214724769071 27.5690848406967 31.616825343476 -31.2359749596423 90.6863750443619 0 0 0 0 0 -37.323021737011 -15.9263932426866 38.0380519844125 57.7394686015664 0 0 0 0 0 32.1683674358829 4.71630647333191 3.94909343784895 -41.4034626919313 0 0 33.5486947372172 -0.708313108772509 0.414122000320351 60.0906254832213 -3.93727824974249 10.4213026935272 -95.0190099217111 0 0 12.5717435396215 8.50306462019623 -21.0988445306821 0 0 0 0 0 0
8.06884580850601 0 -1.05240919198841 0 -4.67925732106457 0 0 16.3122804284096 0 -25.748356193917 4.28977381714947 -2.2428536187831 -6.2440714396056 5.46296762116615 -2.00543009917619 -1.00444560449206 -1.65979957798491 1.10705595873637 38.9954581994389 36.1160128195617 -32.9290795921519 97.35226401389 0 0 0 0 0 -49.8139072302315 -12.1489108826008 40.4362149120133 56.2084987745809 0 0 0 0 0 19.568558845912 5.34701836416465 -1.2351442074016 -28.4067977392181 0 0 30.5592267022314 -2.50494044236684 0.995257789960695 74.1224304442117 -6.46780232262806 4.1508514033725 -86.6565224529194 0 0 17.6110927772386 10.9175395608918 -23.7849663698627 0 0 0 0 0 0
10.2332477390766 0 -1.44900564178824 0 -4.25549064021804 0 0 16.5087770819664 0 -27.8216814022584 7.13103772438929 -1.0705583060495 -5.91576676751437 6.07469617769077 -4.30054227768723 -3.36261053582086 0.0233041240026698 1.55883577745265 44.2996459604507 36.9131624919514 -35.5807769818877 104.108652989921 0 0 0 0 0 -58.9021149976302 -5.40157473963075 41.5043030801451 58.4799157491091 0 0 0 0 0 8.67878248873962 4.17259759763068 -4.39586041024649 -16.7275943151302 0 0 17.4429024742381 -4.50550213107545 1.92415222003479 82.3979683160054 -6.04143819888912 -0.908135457067981 -71.4553422285982 0 0 19.7894954145032 12.7148175099779 -26.2840480964173 0 0 0 0 0 0
12.4737829267979 0 -1.81916665770113 0 -3.69732560783299 0 0 16.5688063621521 0 -28.8391096909435 9.31449310601809 -0.794341598731342 -6.34394095547677 6.82896062428297 -5.35343770858274 -6.21054371770912 0.970896791077288 1.64844789316154 44.27122399323 35.1649171536213 -38.8629844004999 109.163744296539 0 0 0 0 0 -63.7048681411239 2.19944626602005 40.9000127259928 60.9953309864522 0 0 0 0 0 -0.0228581478968362 1.53014671810153 -5.67016491206689 -9.21242596382438 0 0 -4.39880886953323 -3.22658355375584 4.18441316406327 84.4988629294641 -4.22040143473353 -4.05314947256879 -54.3741080390014 0 0 20.5842860024557 12.5298196139857 -26.6046307373881 0 0 0 0 0 0
14.8667496621609 0 -2.20970824211836 0 -3.12068055574898 0 0 16.3895786046982 0 -27.8207613008889 9.71550289666466 -0.394425450056914 -6.92673224481117 6.93344426758646 -5.73966971387331 -8.22024190898368 0.683923446712745 1.41518613243585 40.8131464650712 32.4184800980027 -40.5565664194062 110.691657613871 0 0 0 0 0 -64.3246910950599 8.40695721116018 38.0417551009732 62.1892275628029 0 0 0 0 0 -7.63356834814878 0.00524590811511599 -6.46624801981996 -8.94461339269454 0 0 -23.4718820509088 -0.93428287916789 11.3535485389355 81.8803267396925 -1.76211714793361 -4.54230935006874 -40.6614172801228 0 0 19.9994759577586 10.4266427786973 -24.5810218394344 0 0 0 0 0 0
17.4033034205437 0 -2.56208135820925 0 -2.57342648140408 0 0 15.9924959778786 0 -25.1003191408641 9.43446758509429 -0.0367742082030864 -7.41294890610892 5.46188252373332 -6.14736429283286 -8.24063160677848 -0.603640943173828 1.6119256042047 34.3971639116794 29.3557022551893 -39.6134453844267 107.72887864627 0 0 0 0 0 -61.5774904238851 11.6032287640541 34.1395969752105 62.3944269360376 0 0 0 0 0 -12.8068390594881 -4.41991778903669 -6.87995633131095 -18.9204487462776 0 0 -31.2451121105019 2.46741979278959 18.2431929660798 76.76243828314 0.992566005499669 -3.5478749731462 -33.87360943391 0 0 18.141634429378 8.27794976701754 -22.6343873047896 0 0 0 0 0 0
19.9788977563381 0 -2.90177476517856 0 -2.04322690233405 0 0 15.4550787687302 0 -22.0486789679772 9.35055746889517 0.640017595858474 -7.26496646918645 3.59563134526533 -7.22824455841673 -6.90768673152332 -2.20583766267369 1.88872052905971 24.8359279823479 26.6663866373719 -37.2945651194578 100.963050348806 0 0 0 0 0 -54.885288466867 11.7526759150214 30.957996412169 62.6665416725709 0 0 0 0 0 -14.4297306307434 -7.51877513128969 -7.61507220219701 -37.0589467005209 0 0 -29.914651519795 3.92055722066835 20.0797858792492 70.1179759968231 3.96931673088131 -2.84992152916491 -32.5994239838658 0 0 15.0518457928053 6.70519197053419 -20.9702588397017 0 0 0 0 0 0
22.3993114411831 0 -3.26100519448519 0 -1.47072950908253 0 0 14.9109119176865 0 -20.0848410307795 10.2303465031855 1.65637169852984 -6.58234187671982 1.13951751524454 -8.45980875881151 -5.28301793278669 -3.84698324027567 1.84238501697415 14.1762582518948 25.1206403427778 -33.9585436623333 91.7023042116988 0 0 0 0 0 -45.2142965097331 9.1698006198759 28.6586821057339 63.2350866190828 0 0 0 0 0 -11.4754120357514 -8.48756311442125 -8.6281561907756 -57.927592501876 0 0 -25.0434896400529 4.48598485208226 22.3711399492631 65.4414773481247 9.17274259305308 -4.20294520355724 -37.9525266892553 0 0 -1.29144897706964 6.36489658421577 2.77712449076042 0 0 0 0 0 0
24.3940317034721 0 -3.66725604385138 0 -0.755781300260112 0 0 14.8256231069565 0 -20.8825048161182 12.7217308706752 3.23859560823412 -4.36624586721325 0.157464991572566 -8.5211370549395 -5.09660774424623 -5.75406101490079 0.768823437801656 2.0547023226614 24.961005761664 -31.9205157318546 80.4126025703147 0 0 0 0 0 -31.868251738014 4.98672341000521 27.9854701666945 65.1814173249696 0 0 0 0 0 -1.71632210980917 -7.60758530913635 -10.7609123285833 -75.8219846178249 0 0 -19.9521317402739 4.83555526624983 26.9844586162259 65.052125805714 10.7512271630926 -7.28978692210289 -49.8190343909524 0 0 4.99270327073237 4.71094643309656 5.20647710491919 0 0 0 0 0 0
26.2776280760765 0 -4.07747392952442 0 -0.000405051942521495 0 0 15.1230667591095 0 -20.6722735766739 13.4628102747604 5.17173735218833 -2.76388183566752 0.567598556740807 -7.63849162444831 -4.86897860803278 -6.33572017381229 0.293962194454027 -9.22629567224043 25.9655945495367 -30.7578424377847 70.9307153984495 0 0 0 0 0 -20.3767351386126 0.5855685019233 27.8663702445772 68.6039568161713 0 0 0 0 0 9.21227743172443 -4.60940447760283 -14.3303548609929 -88.6329401421001 0 0 -15.5103661661787 3.42492502491301 28.7966603428511 58.8057843946376 11.3601262190601 -9.89018617752452 -53.3010511694466 0 0 14.1316927022532 3.78230787819934 5.23422915237713 0 0 0 0 0 0
28.0427339017391 0 -4.32651264071465 0 0.6792814381327 0 0 15.437778699398 0 -20.7890026110216 12.0988508317574 5.78516416060928 -1.75842791866057 0.982614841672782 -7.45037268384651 -2.65878459460502 -6.35003076462815 0.698005797404658 -17.7418545696441 24.6927044575651 -31.7814361247764 66.0123303280692 0 0 0 0 0 -5.40184081599844 -7.81100628446524 28.3694886458057 72.5902464610875 0 0 0 0 0 22.9289476843231 -1.68623870210743 -17.1825139498194 -95.6749607990316 0 0 -8.16507658209822 0.96784755088719 29.1535464348552 53.4003965969828 8.09582114672439 -10.4229695163271 -55.26090564989 0 0 19.4784902034853 2.58907199030158 3.34099376461879 0 0 0 0 0 0
29.6154687643051 0 -4.43525319248438 0 1.29700513879389 0 0 15.6751902222633 0 -22.4581909153015 10.868652637995 4.56878303543693 -1.34964909295692 -0.148809117093637 -6.03815436014161 -1.19750833443206 -4.8358522919407 0.115151577408376 -27.6004161441117 23.391232089809 -34.6178239141799 58.3650592880262 0 0 0 0 0 12.2447199768688 -17.8313860297629 29.5005526689667 77.339823406131 0 0 0 0 0 40.997470074245 1.45804389228616 -17.0330344096234 -99.4742535248512 0 0 0.777048121416609 -1.59172718059811 30.0003440471972 47.9744608798795 3.32840474719406 -10.473152770089 -52.1456597845418 0 0 26.4348166606928 4.67872578288253 2.51347619932982 0 0 0 0 0 0
